# xmcd
# 
# Track frame offsets:
#	187
#	9675
#	23212
#	38212
#	50400
#	69000
#	82350
#	92475
#	101850
#	119737
#	130725
#	144012
#
# Disc length: 2106 seconds
#
# Revision: 1
# Processed by: cddbd v1.4PL0 Copyright (c) Steve Scherf et al.
# Submitted via: Audio-CD-Archiv 2.10.446
#
DISCID=9e08380c
DTITLE=Joseph Spence - Living On The Hallelujah Side
DYEAR=1900
DGENRE=country
TTITLE0=I'll Overcome Some Day
TTITLE1=A Closer Walk With Thee
TTITLE2=Where Shall I Go
TTITLE3=I'll Be A Friend To Jesus
TTITLE4=More And More With Jesus
TTITLE5=Santa Claus Is Comin' To Town
TTITLE6=On My Way To Heaven
TTITLE7=Neighbor Gone Home
TTITLE8=Jesus On The Mainline
TTITLE9=Living On The Hallelujah Side (with Blooming Rosalie Roberts, vocal)
TTITLE10=When The Saints Go Marching In
TTITLE11=Irene Goodnight
EXTD=
EXTT0=
EXTT1=
EXTT2=
EXTT3=
EXTT4=
EXTT5=
EXTT6=
EXTT7=
EXTT8=
EXTT9=
EXTT10=
EXTT11=
PLAYORDER=
